<?xml version="1.0" encoding="utf-8"?>
<!-- Generator: Adobe Illustrator 25.3.1, SVG Export Plug-In . SVG Version: 6.00 Build 0)  -->
<svg version="1.1" id="Layer_1" xmlns="http://www.w3.org/2000/svg" xmlns:xlink="http://www.w3.org/1999/xlink" x="0px" y="0px"
	 viewBox="0 0 150 149" style="enable-background:new 0 0 150 149;" xml:space="preserve">
<path d="M77.9,16c-34.2,0-62,27.7-62,62c0,34.2,27.7,62,62,62c34.2,0,62-27.7,62-62C139.9,43.7,112.2,16,77.9,16z M111.7,86.6h-3.9
	c-2.1,0-3.8,1.7-3.8,3.8v22.2c0,2.1-1.7,3.8-3.8,3.8h-9c-2.1,0-3.8-1.7-3.8-3.8v-10.1c0-2.1-1.7-3.8-3.8-3.8H72.3
	c-2.1,0-3.8,1.7-3.8,3.8v10.1c0,2.1-1.7,3.8-3.8,3.8h-9c-2.1,0-3.8-1.7-3.8-3.8V90.5c0-2.1-1.7-3.8-3.8-3.8h-3.9
	c-3.3,0-5-3.9-2.9-6.3L56.8,62L75,40.8c1.5-1.8,4.3-1.8,5.8,0l33.8,39.5C116.8,82.8,115,86.6,111.7,86.6z"/>
</svg>
